<?xml version="1.0" encoding="UTF-8" standalone="no"?>
<!-- Created with Inkscape (http://www.inkscape.org/) -->

<svg
   xmlns:dc="http://purl.org/dc/elements/1.1/"
   xmlns:cc="http://creativecommons.org/ns#"
   xmlns:rdf="http://www.w3.org/1999/02/22-rdf-syntax-ns#"
   xmlns:svg="http://www.w3.org/2000/svg"
   xmlns="http://www.w3.org/2000/svg"
   xmlns:sodipodi="http://sodipodi.sourceforge.net/DTD/sodipodi-0.dtd"
   xmlns:inkscape="http://www.inkscape.org/namespaces/inkscape"
   width="500mm"
   height="500mm"
   viewBox="0 0 500 500"
   version="1.1"
   id="svg849"
   inkscape:version="0.92.4 (5da689c313, 2019-01-14)"
   sodipodi:docname="drawing.svg">
  <defs
     id="defs843" />
  <sodipodi:namedview
     id="base"
     pagecolor="#ffffff"
     bordercolor="#666666"
     borderopacity="1.0"
     inkscape:pageopacity="0.0"
     inkscape:pageshadow="2"
     inkscape:zoom="0.24748737"
     inkscape:cx="877.76221"
     inkscape:cy="1222.1002"
     inkscape:document-units="mm"
     inkscape:current-layer="layer1"
     showgrid="false"
     inkscape:window-width="1920"
     inkscape:window-height="1017"
     inkscape:window-x="-8"
     inkscape:window-y="-8"
     inkscape:window-maximized="1" />
  <metadata
     id="metadata846">
    <rdf:RDF>
      <cc:Work
         rdf:about="">
        <dc:format>image/svg+xml</dc:format>
        <dc:type
           rdf:resource="http://purl.org/dc/dcmitype/StillImage" />
        <dc:title></dc:title>
      </cc:Work>
    </rdf:RDF>
  </metadata>
  <g
     inkscape:label="Layer 1"
     inkscape:groupmode="layer"
     id="layer1"
     transform="translate(0,203)">
    <path
       inkscape:connector-curvature="0"
       style="opacity:1;fill:#f2f2f2;fill-opacity:1;stroke-width:1.49822521"
       d="M 250.00003,-199.68968 A 246.69005,246.69005 0 0 0 3.3103026,46.999998 246.69005,246.69005 0 0 0 250.00003,293.68968 246.69005,246.69005 0 0 0 496.6897,46.999998 246.69005,246.69005 0 0 0 250.00003,-199.68968 Z m -60.45596,142.531817 c 9.55749,0 18.13892,2.244921 25.7459,6.73112 7.60698,4.291086 13.06808,11.019516 16.38393,20.186904 L 298.38184,151.1579 H 245.42488 L 193.93305,-10.636868 c -0.3899,-1.170267 -0.97582,-1.951962 -1.75602,-2.342064 -0.58514,-0.585174 -1.36472,-0.876975 -2.33996,-0.876975 -0.97523,0 -1.8549,0.291801 -2.6351,0.876975 -0.58518,0.585133 -0.97495,1.366828 -1.16998,2.342064 L 146.06025,109.49429 h 77.20139 c 4.42043,13.88765 8.84052,27.77609 13.26116,41.66361 H 132.1981 127.95238 80.997153 L 147.41205,-29.946797 c 3.31589,-8.972357 8.77696,-15.702856 16.38394,-20.189055 7.60701,-4.68123 16.19055,-7.022011 25.74808,-7.022011 z m 127.60019,0 h 89.16207 v 41.663567 h -83.68007 c -3.46262,0 -6.63687,0.892331 -9.52235,2.677903 -2.88551,1.785573 -5.09807,4.1679918 -6.63699,7.1439047 -1.53897,2.9759542 -2.30788,6.24855192 -2.30788,9.819697 0,3.5711037 0.76891,6.8437013 2.30788,9.8196973 1.53892,2.777488 3.75148,5.061026 6.63699,6.846599 2.88548,1.785531 6.05973,2.677903 9.52235,2.677903 h 32.60748 c 12.88862,0 24.04559,2.578112 33.47162,7.736364 9.61834,4.95991 17.02275,12.00187 22.21672,21.128033 5.38627,8.92778 8.08069,19.444488 8.08069,31.546605 0,14.284415 -2.79077,26.48483 -8.36951,36.60291 -5.38627,9.91978 -12.69433,17.55739 -21.92794,22.91402 -9.23365,5.1583 -19.43108,7.73856 -30.58838,7.73856 h -50.76245 c -5.33371,-13.81422 -10.47698,-27.71743 -15.52625,-41.66361 h 59.36512 c 3.84734,0 7.30863,-0.99125 10.38649,-2.97521 3.0779,-1.98391 5.48316,-4.56418 7.21452,-7.738513 1.92365,-3.174296 2.88535,-6.644821 2.88535,-10.414267 0,-3.967911 -0.9617,-7.53947 -2.88535,-10.713766 -1.73131,-3.174296 -4.13662,-5.754519 -7.21452,-7.738516 -3.07786,-1.983956 -6.53915,-2.975209 -10.38649,-2.975209 h -31.16375 c -11.73441,0 -22.41163,-2.380308 -32.03,-7.141794 -9.61833,-4.959827 -17.31194,-12.00394 -23.08298,-21.130144 -5.57861,-9.126081 -8.36735,-20.137442 -8.36735,-33.0331338 0,-12.6972669 2.69239,-23.7085872 8.07862,-33.0331332 5.38627,-9.324505 12.69437,-16.564394 21.92798,-21.722645 9.23361,-5.356594 19.43108,-8.035822 30.58838,-8.035822 z"
       id="path1041" />
  </g>
</svg>
