<?xml version="1.0" encoding="UTF-8" standalone="no"?>
<!-- Created with Inkscape (http://www.inkscape.org/) -->

<svg
   xmlns:dc="http://purl.org/dc/elements/1.1/"
   xmlns:cc="http://creativecommons.org/ns#"
   xmlns:rdf="http://www.w3.org/1999/02/22-rdf-syntax-ns#"
   xmlns:svg="http://www.w3.org/2000/svg"
   xmlns="http://www.w3.org/2000/svg"
   xmlns:sodipodi="http://sodipodi.sourceforge.net/DTD/sodipodi-0.dtd"
   xmlns:inkscape="http://www.inkscape.org/namespaces/inkscape"
   width="500mm"
   height="500mm"
   viewBox="0 0 500 500"
   version="1.1"
   id="svg8"
   inkscape:version="0.92.4 (5da689c313, 2019-01-14)"
   sodipodi:docname="screenshot.svg">
  <defs
     id="defs2" />
  <sodipodi:namedview
     id="base"
     pagecolor="#ffffff"
     bordercolor="#666666"
     borderopacity="1.0"
     inkscape:pageopacity="0.0"
     inkscape:pageshadow="2"
     inkscape:zoom="0.35"
     inkscape:cx="1002.3992"
     inkscape:cy="795.33248"
     inkscape:document-units="mm"
     inkscape:current-layer="layer1"
     showgrid="false"
     inkscape:window-width="1920"
     inkscape:window-height="1017"
     inkscape:window-x="-8"
     inkscape:window-y="-8"
     inkscape:window-maximized="1" />
  <metadata
     id="metadata5">
    <rdf:RDF>
      <cc:Work
         rdf:about="">
        <dc:format>image/svg+xml</dc:format>
        <dc:type
           rdf:resource="http://purl.org/dc/dcmitype/StillImage" />
        <dc:title></dc:title>
      </cc:Work>
    </rdf:RDF>
  </metadata>
  <g
     inkscape:label="Layer 1"
     inkscape:groupmode="layer"
     id="layer1"
     transform="translate(0,203)">
    <path
       style="opacity:1;fill:#00adb5;fill-opacity:1;stroke-width:0.2443381"
       d="m 333.74243,-192.22234 c -0.61391,0.004 -1.22861,0.0159 -1.84339,0.0352 -3.50955,0.0111 -7.01894,0.0163 -10.52849,0.026 9.3e-4,8.67053 4.1e-4,17.34146 6.3e-4,26.012 h 11.92416 c 3.55327,0 7.0302,0.3129 10.40604,0.91274 h 6.1e-4 c 0.96436,0.17134 1.92084,0.36614 2.86803,0.58374 h 6.4e-4 c 4.7364,1.08809 9.24965,2.74665 13.46514,4.90001 0.84314,0.43069 1.67461,0.88088 2.4933,1.35054 2.04659,1.17418 4.01447,2.4689 5.89497,3.87351 0.7521,0.56177 1.49038,1.14175 2.21379,1.73825 h 6e-4 c 3.97914,3.28121 7.51544,7.07877 10.50745,11.29218 0.81601,1.14914 1.59077,2.32878 2.32389,3.53773 0.48868,0.80597 0.9589,1.62516 1.40925,2.4562 0.22517,0.41551 0.44506,0.83373 0.66045,1.2553 0.43069,0.84313 0.84196,1.69803 1.23243,2.56441 0.78101,1.73276 1.4796,3.51063 2.09257,5.32917 0.30644,0.90926 0.59192,1.82906 0.85461,2.75796 1.44456,5.10891 2.21687,10.50518 2.21687,16.08892 v 0.22879 c 8.25798,-0.009 16.51605,-0.0211 24.77404,-0.0315 -0.14833,-5.70281 -0.3079,-11.40554 -0.48916,-17.108 -7.1233,-38.10473 -43.80309,-68.06759 -82.47843,-67.80313 z m -38.22621,0.12615 c -23.51033,0.0476 -47.021,0.0721 -70.5314,0.0847 9.3e-4,8.6208 9.3e-4,17.24156 9.3e-4,25.86236 h 1.49895 69.03122 z m -204.591731,0.0853 c -26.775019,-0.003 -53.550293,0.002 -80.325272,0.026 0.342415,28.25679 0.385867,56.5186 0.319084,84.78251 8.560424,-10e-4 17.12076,-3e-4 25.68118,-6.1e-4 v -0.30548 -58.64065 H 91.749398 102.74598 V -192.009 c -3.940504,-5.9e-4 -7.880964,-9.3e-4 -11.821491,-9.3e-4 z m 37.675831,0.007 c 9.3e-4,8.61847 9.3e-4,17.23709 9.3e-4,25.85555 h 70.52894 v -25.85184 c -23.51027,0.004 -47.0199,9.3e-4 -70.53017,-0.003 z M 10.83049,-81.348049 c -0.101625,24.642957 -0.237833,49.28638 -0.294966,73.9281582 8.687952,-0.00122 17.37602,-2.494e-4 26.063957,-6.175e-4 V -81.348049 Z m 381.10549,0 v 73.8533344 c 8.68391,-0.00854 17.36827,-0.022017 26.05222,-0.03277 -0.0584,-24.6087784 -0.25515,-49.2161474 -0.7031,-73.8205624 z M 10.508936,18.433814 c 0.01739,24.645922 0.164662,49.289642 0.563958,73.928167 8.508762,-9.31e-4 17.017832,-2.44e-4 25.526587,-6.32e-4 V 32.811701 18.433814 Z m 381.427044,0 v 73.850254 c 8.60752,-0.0089 17.21531,-0.02195 25.8228,-0.03281 0.10144,-24.606297 0.21615,-49.21222 0.23992,-73.817458 z M 11.590475,118.2157 c 0.241021,10.03108 0.528236,20.06113 0.876239,30.09018 7.890442,40.71941 49.466844,70.24527 90.279266,67.31772 V 189.188 h -7.505848 c -1.522671,0 -3.031231,-0.0578 -4.524037,-0.17065 h -6.32e-4 c -0.497473,-0.0377 -0.993316,-0.0813 -1.487185,-0.13111 -0.493881,-0.0499 -0.986565,-0.10565 -1.476688,-0.16759 h -6.2e-4 c -2.941413,-0.37176 -5.813218,-0.95963 -8.599759,-1.74753 h -6.21e-4 c -2.322082,-0.6566 -4.584879,-1.45227 -6.778641,-2.37703 -0.877434,-0.36989 -1.743638,-0.76112 -2.598423,-1.17183 h -6.21e-4 c -1.709693,-0.82141 -3.372902,-1.72308 -4.984727,-2.70044 h -6.21e-4 c -1.208849,-0.73299 -2.388077,-1.50852 -3.537118,-2.32448 h -6.1e-4 c -1.915138,-1.35993 -3.744326,-2.83258 -5.478208,-4.4078 -0.693584,-0.63015 -1.371986,-1.2768 -2.034453,-1.93923 -0.662467,-0.66248 -1.309096,-1.3409 -1.939231,-2.03447 -0.314905,-0.34659 -0.625897,-0.69707 -0.93251,-1.05123 l -6.17e-4,-6e-4 c -0.306757,-0.35432 -0.608865,-0.71177 -0.907161,-1.07353 -0.596593,-0.72349 -1.176413,-1.4622 -1.738255,-2.21439 -1.404607,-1.88047 -2.69871,-3.84898 -3.872893,-5.89561 -0.469679,-0.81869 -0.919842,-1.64953 -1.350536,-2.49266 -1.076728,-2.10779 -2.029642,-4.29001 -2.849479,-6.5375 -0.327936,-0.89901 -0.634798,-1.80903 -0.919526,-2.72828 -0.142351,-0.45958 -0.279271,-0.92133 -0.410601,-1.38576 -0.262649,-0.92893 -0.50279,-1.86755 -0.720408,-2.81485 -0.108776,-0.47367 -0.211866,-0.94919 -0.309187,-1.42724 -0.194658,-0.95606 -0.366076,-1.92128 -0.513873,-2.89399 -0.4434,-2.918 -0.67341,-5.90719 -0.67341,-8.95284 V 118.2157 Z m 380.222445,0 v 30.42781 40.54449 h -14.16329 c -12.72171,-0.003 -25.44329,-0.002 -38.16497,0 h -6.18932 -11.845 c 0.01,8.61831 0.0223,17.23659 0.0334,25.85493 23.44308,1.4e-4 46.88613,9.4e-4 70.3292,0.002 v 15.1162 56.06265 h 26.00583 c -0.10543,-23.7259 -0.14057,-47.45229 -0.15089,-71.17825 0.0901,3e-5 0.18018,0 0.27026,0 -3e-5,-8.2e-4 0,-0.002 0,-0.003 h 15.49031 56.06265 v -26.0058 c -23.9243,0.10631 -47.84875,0.14152 -71.77313,0.1515 -0.0196,-3.31901 -0.037,-6.63806 -0.0507,-9.9571 0.004,-20.33859 0.0126,-40.67729 -6.3e-4,-61.01583 h -6e-4 H 391.936 Z M 128.68317,189.188 c 0.01,8.59546 0.0215,17.19084 0.0328,25.78629 23.47145,0.0211 46.94307,0.0384 70.41455,0.0483 v -25.83454 h -0.57078 z m 96.38327,0 c 0.01,8.61404 0.0216,17.22855 0.0328,25.8426 23.4723,0.008 46.94473,0.01 70.417,0.0118 v -25.85434 z"
       id="path878"
       inkscape:connector-curvature="0" />
  </g>
</svg>
