<?xml version="1.0" encoding="UTF-8" standalone="no"?>
<!-- Generator: Adobe Illustrator 19.0.0, SVG Export Plug-In . SVG Version: 6.00 Build 0)  -->

<svg
   xmlns:dc="http://purl.org/dc/elements/1.1/"
   xmlns:cc="http://creativecommons.org/ns#"
   xmlns:rdf="http://www.w3.org/1999/02/22-rdf-syntax-ns#"
   xmlns:svg="http://www.w3.org/2000/svg"
   xmlns="http://www.w3.org/2000/svg"
   xmlns:sodipodi="http://sodipodi.sourceforge.net/DTD/sodipodi-0.dtd"
   xmlns:inkscape="http://www.inkscape.org/namespaces/inkscape"
   version="1.1"
   id="Capa_1"
   x="0px"
   y="0px"
   viewBox="0 0 512 512"
   style="enable-background:new 0 0 512 512;"
   xml:space="preserve"
   sodipodi:docname="tick.svg"
   inkscape:version="0.92.4 (5da689c313, 2019-01-14)"
   inkscape:export-filename="C:\Users\Abdus Saboor\Desktop\Coding\profile\dist\img\tick.png"
   inkscape:export-xdpi="3"
   inkscape:export-ydpi="3"><metadata
   id="metadata49"><rdf:RDF><cc:Work
       rdf:about=""><dc:format>image/svg+xml</dc:format><dc:type
         rdf:resource="http://purl.org/dc/dcmitype/StillImage" /></cc:Work></rdf:RDF></metadata><defs
   id="defs47" /><sodipodi:namedview
   pagecolor="#ffffff"
   bordercolor="#666666"
   borderopacity="1"
   objecttolerance="10"
   gridtolerance="10"
   guidetolerance="10"
   inkscape:pageopacity="0"
   inkscape:pageshadow="2"
   inkscape:window-width="1920"
   inkscape:window-height="1017"
   id="namedview45"
   showgrid="false"
   inkscape:zoom="0.4609375"
   inkscape:cx="-587.9322"
   inkscape:cy="256"
   inkscape:window-x="-8"
   inkscape:window-y="-8"
   inkscape:window-maximized="1"
   inkscape:current-layer="Capa_1" />
<g
   id="g6"
   style="fill:#00adb5;fill-opacity:1">
	<g
   id="g4"
   style="fill:#00adb5;fill-opacity:1">
		<path
   d="M497.36,69.995c-7.532-7.545-19.753-7.558-27.285-0.032L238.582,300.845l-83.522-90.713    c-7.217-7.834-19.419-8.342-27.266-1.126c-7.841,7.217-8.343,19.425-1.126,27.266l97.126,105.481    c3.557,3.866,8.535,6.111,13.784,6.22c0.141,0.006,0.277,0.006,0.412,0.006c5.101,0,10.008-2.026,13.623-5.628L497.322,97.286    C504.873,89.761,504.886,77.54,497.36,69.995z"
   id="path2"
   style="fill:#00adb5;fill-opacity:1" />
	</g>
</g>
<g
   id="g12"
   style="fill:#00adb5;fill-opacity:1">
	<g
   id="g10"
   style="fill:#00adb5;fill-opacity:1">
		<path
   d="M492.703,236.703c-10.658,0-19.296,8.638-19.296,19.297c0,119.883-97.524,217.407-217.407,217.407    c-119.876,0-217.407-97.524-217.407-217.407c0-119.876,97.531-217.407,217.407-217.407c10.658,0,19.297-8.638,19.297-19.296    C275.297,8.638,266.658,0,256,0C114.84,0,0,114.84,0,256c0,141.154,114.84,256,256,256c141.154,0,256-114.846,256-256    C512,245.342,503.362,236.703,492.703,236.703z"
   id="path8"
   style="fill:#00adb5;fill-opacity:1" />
	</g>
</g>
<g
   id="g14"
   style="fill:#00adb5;fill-opacity:1">
</g>
<g
   id="g16"
   style="fill:#00adb5;fill-opacity:1">
</g>
<g
   id="g18"
   style="fill:#00adb5;fill-opacity:1">
</g>
<g
   id="g20"
   style="fill:#00adb5;fill-opacity:1">
</g>
<g
   id="g22"
   style="fill:#00adb5;fill-opacity:1">
</g>
<g
   id="g24"
   style="fill:#00adb5;fill-opacity:1">
</g>
<g
   id="g26"
   style="fill:#00adb5;fill-opacity:1">
</g>
<g
   id="g28"
   style="fill:#00adb5;fill-opacity:1">
</g>
<g
   id="g30"
   style="fill:#00adb5;fill-opacity:1">
</g>
<g
   id="g32"
   style="fill:#00adb5;fill-opacity:1">
</g>
<g
   id="g34"
   style="fill:#00adb5;fill-opacity:1">
</g>
<g
   id="g36"
   style="fill:#00adb5;fill-opacity:1">
</g>
<g
   id="g38"
   style="fill:#00adb5;fill-opacity:1">
</g>
<g
   id="g40"
   style="fill:#00adb5;fill-opacity:1">
</g>
<g
   id="g42"
   style="fill:#00adb5;fill-opacity:1">
</g>
</svg>